<svg width="26" height="26" viewBox="0 0 26 26" fill="none" xmlns="http://www.w3.org/2000/svg">
<path d="M23.9297 23.9404C24.4277 23.4482 24.4649 22.6742 24.0413 22.1399L24.0277 22.0733L23.9181 21.9662L20.2328 18.3632L20.1752 18.2755L20.1468 18.2324L20.1102 18.1959C19.853 17.9399 19.5038 17.7977 19.1416 17.7977C18.7833 17.7977 18.4377 17.9369 18.1813 18.1878C15.1987 20.9181 10.6033 21.0654 7.44352 18.5291C4.28611 15.9946 3.54565 11.5708 5.70354 8.18825C7.86456 4.80078 12.2686 3.49882 15.9953 5.16063C19.718 6.82065 21.5923 10.9144 20.3956 14.7216L20.3955 14.722C20.2487 15.1904 20.3698 15.6979 20.7075 16.0523C21.044 16.4055 21.5435 16.5533 22.0181 16.4465C22.4929 16.3396 22.8802 15.9916 23.027 15.525C24.6283 10.4676 22.2068 5.03383 17.348 2.7342C12.4932 0.436394 6.64558 1.9485 3.58726 6.30525C0.525691 10.6666 1.18495 16.5612 5.13223 20.1717C8.9678 23.68 14.7898 24.0101 19.0045 21.0164L21.9971 23.9422L21.9979 23.943C22.5325 24.4634 23.3923 24.4634 23.927 23.943L23.9297 23.9404Z" fill="#0D3B66" stroke="#0D3B66"/>
</svg>
